<svg id="visual" viewBox="0 0 900 600" width="900" height="600" xmlns="http://www.w3.org/2000/svg" xmlns:xlink="http://www.w3.org/1999/xlink" version="1.1"><rect x="0" y="0" width="900" height="600" fill="#001220"></rect><path d="M0 448L21.5 446.5C43 445 86 442 128.8 428.8C171.7 415.7 214.3 392.3 257.2 380.2C300 368 343 367 385.8 363.8C428.7 360.7 471.3 355.3 514.2 367.2C557 379 600 408 642.8 423.2C685.7 438.3 728.3 439.7 771.2 433.8C814 428 857 415 878.5 408.5L900 402L900 601L878.5 601C857 601 814 601 771.2 601C728.3 601 685.7 601 642.8 601C600 601 557 601 514.2 601C471.3 601 428.7 601 385.8 601C343 601 300 601 257.2 601C214.3 601 171.7 601 128.8 601C86 601 43 601 21.5 601L0 601Z" fill="#f05f40"></path><path d="M0 446L21.5 451.3C43 456.7 86 467.3 128.8 462C171.7 456.7 214.3 435.3 257.2 428.5C300 421.7 343 429.3 385.8 438.2C428.7 447 471.3 457 514.2 458.7C557 460.3 600 453.7 642.8 450C685.7 446.3 728.3 445.7 771.2 449.3C814 453 857 461 878.5 465L900 469L900 601L878.5 601C857 601 814 601 771.2 601C728.3 601 685.7 601 642.8 601C600 601 557 601 514.2 601C471.3 601 428.7 601 385.8 601C343 601 300 601 257.2 601C214.3 601 171.7 601 128.8 601C86 601 43 601 21.5 601L0 601Z" fill="#ea4e4b"></path><path d="M0 489L21.5 489.2C43 489.3 86 489.7 128.8 483.2C171.7 476.7 214.3 463.3 257.2 458.5C300 453.7 343 457.3 385.8 458.8C428.7 460.3 471.3 459.7 514.2 465C557 470.3 600 481.7 642.8 481.5C685.7 481.3 728.3 469.7 771.2 468C814 466.3 857 474.7 878.5 478.8L900 483L900 601L878.5 601C857 601 814 601 771.2 601C728.3 601 685.7 601 642.8 601C600 601 557 601 514.2 601C471.3 601 428.7 601 385.8 601C343 601 300 601 257.2 601C214.3 601 171.7 601 128.8 601C86 601 43 601 21.5 601L0 601Z" fill="#e13d55"></path><path d="M0 524L21.5 526.5C43 529 86 534 128.8 529.2C171.7 524.3 214.3 509.7 257.2 503.3C300 497 343 499 385.8 501.5C428.7 504 471.3 507 514.2 513.2C557 519.3 600 528.7 642.8 531.3C685.7 534 728.3 530 771.2 521C814 512 857 498 878.5 491L900 484L900 601L878.5 601C857 601 814 601 771.2 601C728.3 601 685.7 601 642.8 601C600 601 557 601 514.2 601C471.3 601 428.7 601 385.8 601C343 601 300 601 257.2 601C214.3 601 171.7 601 128.8 601C86 601 43 601 21.5 601L0 601Z" fill="#d52e5f"></path><path d="M0 528L21.5 530.2C43 532.3 86 536.7 128.8 536.8C171.7 537 214.3 533 257.2 531.7C300 530.3 343 531.7 385.8 534C428.7 536.3 471.3 539.7 514.2 539.8C557 540 600 537 642.8 540.5C685.7 544 728.3 554 771.2 554.8C814 555.7 857 547.3 878.5 543.2L900 539L900 601L878.5 601C857 601 814 601 771.2 601C728.3 601 685.7 601 642.8 601C600 601 557 601 514.2 601C471.3 601 428.7 601 385.8 601C343 601 300 601 257.2 601C214.3 601 171.7 601 128.8 601C86 601 43 601 21.5 601L0 601Z" fill="#c62368"></path></svg>