<svg id="visual" viewBox="0 0 960 540" width="960" height="540" xmlns="http://www.w3.org/2000/svg" xmlns:xlink="http://www.w3.org/1999/xlink" version="1.1"><g stroke-width="1" stroke-linejoin="bevel"><path d="M520.8 254L575.7 340L594.7 241Z" fill="#783b6f" stroke="#783b6f"></path><path d="M606.6 226L602.2 231L664.1 254Z" fill="#d15172" stroke="#d15172"></path><path d="M594.7 241L604.2 190L520.8 254Z" fill="#3d2e58" stroke="#3d2e58"></path><path d="M519.7 337L554.2 353L575.7 340Z" fill="#ea5e6b" stroke="#ea5e6b"></path><path d="M520.8 254L519.7 337L575.7 340Z" fill="#5a3566" stroke="#5a3566"></path><path d="M664.1 254L602.2 231L594.7 241Z" fill="#974174" stroke="#974174"></path><path d="M602.2 231L604.2 190L594.7 241Z" fill="#ff6f61" stroke="#ff6f61"></path><path d="M554.2 353L589.2 372L575.7 340Z" fill="#783b6f" stroke="#783b6f"></path><path d="M575.7 340L664.1 254L594.7 241Z" fill="#0f1c35" stroke="#0f1c35"></path><path d="M556.7 436L589.2 372L554.2 353Z" fill="#974174" stroke="#974174"></path><path d="M606.6 226L604.2 190L602.2 231Z" fill="#b54775" stroke="#b54775"></path><path d="M681.2 285L664.1 254L575.7 340Z" fill="#b54775" stroke="#b54775"></path><path d="M606.6 226L675.2 223L604.2 190Z" fill="#d15172" stroke="#d15172"></path><path d="M459.3 344L495.7 375L519.7 337Z" fill="#d15172" stroke="#d15172"></path><path d="M519.7 337L495.7 375L554.2 353Z" fill="#5a3566" stroke="#5a3566"></path><path d="M673.6 380L681.2 285L575.7 340Z" fill="#0f1c35" stroke="#0f1c35"></path><path d="M520.8 254L459.3 344L519.7 337Z" fill="#ea5e6b" stroke="#ea5e6b"></path><path d="M681.2 285L675.2 223L664.1 254Z" fill="#242648" stroke="#242648"></path><path d="M664.1 254L675.2 223L606.6 226Z" fill="#5a3566" stroke="#5a3566"></path><path d="M675.2 223L618.6 168L604.2 190Z" fill="#d15172" stroke="#d15172"></path><path d="M471.3 175L441.2 237L520.8 254Z" fill="#242648" stroke="#242648"></path><path d="M508.7 153L520.8 254L604.2 190Z" fill="#5a3566" stroke="#5a3566"></path><path d="M520.8 254L441.2 237L459.3 344Z" fill="#3d2e58" stroke="#3d2e58"></path><path d="M618.6 168L584.7 146L604.2 190Z" fill="#001122" stroke="#001122"></path><path d="M424.3 327L434.3 346L459.3 344Z" fill="#783b6f" stroke="#783b6f"></path><path d="M417.8 405L488.8 417L495.7 375Z" fill="#974174" stroke="#974174"></path><path d="M649.6 416L673.6 380L589.2 372Z" fill="#ff6f61" stroke="#ff6f61"></path><path d="M589.2 372L673.6 380L575.7 340Z" fill="#ea5e6b" stroke="#ea5e6b"></path><path d="M584.7 146L508.7 153L604.2 190Z" fill="#ea5e6b" stroke="#ea5e6b"></path><path d="M508.7 153L471.3 175L520.8 254Z" fill="#974174" stroke="#974174"></path><path d="M441.2 237L424.3 327L459.3 344Z" fill="#ff6f61" stroke="#ff6f61"></path><path d="M673.6 380L705.6 325L681.2 285Z" fill="#0f1c35" stroke="#0f1c35"></path><path d="M681.2 285L785.1 168L675.2 223Z" fill="#974174" stroke="#974174"></path><path d="M488.8 417L556.7 436L495.7 375Z" fill="#5a3566" stroke="#5a3566"></path><path d="M495.7 375L556.7 436L554.2 353Z" fill="#d15172" stroke="#d15172"></path><path d="M417.8 405L495.7 375L459.3 344Z" fill="#001122" stroke="#001122"></path><path d="M739.1 369L711.6 321L705.6 325Z" fill="#5a3566" stroke="#5a3566"></path><path d="M705.6 325L711.6 321L681.2 285Z" fill="#5a3566" stroke="#5a3566"></path><path d="M618.6 168L588.6 137L584.7 146Z" fill="#ea5e6b" stroke="#ea5e6b"></path><path d="M584.7 146L531.7 123L508.7 153Z" fill="#5a3566" stroke="#5a3566"></path><path d="M605.7 123L588.6 137L618.6 168Z" fill="#783b6f" stroke="#783b6f"></path><path d="M556.7 436L649.6 416L589.2 372Z" fill="#783b6f" stroke="#783b6f"></path><path d="M531.7 123L495.2 142L508.7 153Z" fill="#974174" stroke="#974174"></path><path d="M508.7 153L495.2 142L471.3 175Z" fill="#001122" stroke="#001122"></path><path d="M739.6 141L682.1 176L785.1 168Z" fill="#ff6f61" stroke="#ff6f61"></path><path d="M675.2 223L682.1 176L618.6 168Z" fill="#ff6f61" stroke="#ff6f61"></path><path d="M649.6 416L687.2 396L673.6 380Z" fill="#5a3566" stroke="#5a3566"></path><path d="M673.6 380L703.1 381L705.6 325Z" fill="#783b6f" stroke="#783b6f"></path><path d="M588.6 137L531.7 123L584.7 146Z" fill="#783b6f" stroke="#783b6f"></path><path d="M471.3 175L443.2 171L441.2 237Z" fill="#3d2e58" stroke="#3d2e58"></path><path d="M384.8 281L392.8 333L424.3 327Z" fill="#974174" stroke="#974174"></path><path d="M495.2 142L443.2 171L471.3 175Z" fill="#001122" stroke="#001122"></path><path d="M687.2 396L703.1 381L673.6 380Z" fill="#0f1c35" stroke="#0f1c35"></path><path d="M646.1 123L605.7 123L618.6 168Z" fill="#ff6f61" stroke="#ff6f61"></path><path d="M588.6 137L572.2 77L531.7 123Z" fill="#d15172" stroke="#d15172"></path><path d="M649.6 416L658.6 434L687.2 396Z" fill="#3d2e58" stroke="#3d2e58"></path><path d="M774.1 387L739.1 369L703.1 381Z" fill="#ff6f61" stroke="#ff6f61"></path><path d="M606.2 483L658.6 434L649.6 416Z" fill="#974174" stroke="#974174"></path><path d="M384.8 281L424.3 327L441.2 237Z" fill="#783b6f" stroke="#783b6f"></path><path d="M424.3 327L392.8 333L434.3 346Z" fill="#ff6f61" stroke="#ff6f61"></path><path d="M434.3 346L417.8 405L459.3 344Z" fill="#3d2e58" stroke="#3d2e58"></path><path d="M413.8 162L423.8 175L443.2 171Z" fill="#001122" stroke="#001122"></path><path d="M443.2 171L423.8 175L441.2 237Z" fill="#5a3566" stroke="#5a3566"></path><path d="M413.8 162L443.2 171L495.2 142Z" fill="#ea5e6b" stroke="#ea5e6b"></path><path d="M360.8 231L384.8 281L441.2 237Z" fill="#ff6f61" stroke="#ff6f61"></path><path d="M682.1 176L646.1 123L618.6 168Z" fill="#974174" stroke="#974174"></path><path d="M392.8 333L417.8 405L434.3 346Z" fill="#d15172" stroke="#d15172"></path><path d="M488.8 417L560.2 503L556.7 436Z" fill="#ea5e6b" stroke="#ea5e6b"></path><path d="M703.1 381L739.1 369L705.6 325Z" fill="#ea5e6b" stroke="#ea5e6b"></path><path d="M739.6 141L692.2 116L682.1 176Z" fill="#242648" stroke="#242648"></path><path d="M774.1 387L703.1 381L687.2 396Z" fill="#3d2e58" stroke="#3d2e58"></path><path d="M417.8 405L424.8 422L488.8 417Z" fill="#3d2e58" stroke="#3d2e58"></path><path d="M378.8 119L413.8 162L383.8 93Z" fill="#d15172" stroke="#d15172"></path><path d="M423.8 175L360.8 231L441.2 237Z" fill="#d15172" stroke="#d15172"></path><path d="M424.8 422L444.2 444L488.8 417Z" fill="#b54775" stroke="#b54775"></path><path d="M556.7 436L606.2 483L649.6 416Z" fill="#ea5e6b" stroke="#ea5e6b"></path><path d="M560.2 503L606.2 483L556.7 436Z" fill="#ea5e6b" stroke="#ea5e6b"></path><path d="M810.1 464L774.1 387L687.2 396Z" fill="#ea5e6b" stroke="#ea5e6b"></path><path d="M605.7 123L572.2 77L588.6 137Z" fill="#5a3566" stroke="#5a3566"></path><path d="M531.7 123L483.3 45L495.2 142Z" fill="#001122" stroke="#001122"></path><path d="M586.2 44L572.2 77L605.7 123Z" fill="#242648" stroke="#242648"></path><path d="M413.8 162L360.8 231L423.8 175Z" fill="#0f1c35" stroke="#0f1c35"></path><path d="M384.8 281L352.3 265L392.8 333Z" fill="#242648" stroke="#242648"></path><path d="M777.1 332L681.2 285L711.6 321Z" fill="#d15172" stroke="#d15172"></path><path d="M682.1 176L692.2 116L646.1 123Z" fill="#ff6f61" stroke="#ff6f61"></path><path d="M586.2 44L568.2 65L572.2 77Z" fill="#ea5e6b" stroke="#ea5e6b"></path><path d="M360.8 231L352.3 265L384.8 281Z" fill="#242648" stroke="#242648"></path><path d="M352.3 363L390.3 427L417.8 405Z" fill="#ea5e6b" stroke="#ea5e6b"></path><path d="M417.8 405L390.3 427L424.8 422Z" fill="#d15172" stroke="#d15172"></path><path d="M505.7 540L560.2 503L488.8 417Z" fill="#3d2e58" stroke="#3d2e58"></path><path d="M739.1 369L777.1 332L711.6 321Z" fill="#ff6f61" stroke="#ff6f61"></path><path d="M586.2 44L605.7 123L646.1 123Z" fill="#783b6f" stroke="#783b6f"></path><path d="M572.2 77L568.2 65L531.7 123Z" fill="#0f1c35" stroke="#0f1c35"></path><path d="M352.3 363L417.8 405L392.8 333Z" fill="#ff6f61" stroke="#ff6f61"></path><path d="M424.8 422L390.3 427L444.2 444Z" fill="#0f1c35" stroke="#0f1c35"></path><path d="M539.2 540L550.8 540L560.2 503Z" fill="#001122" stroke="#001122"></path><path d="M352.3 265L352.3 363L392.8 333Z" fill="#ea5e6b" stroke="#ea5e6b"></path><path d="M754.6 142L739.6 141L785.1 168Z" fill="#001122" stroke="#001122"></path><path d="M739.1 369L774.1 387L777.1 332Z" fill="#001122" stroke="#001122"></path><path d="M810.1 464L687.2 396L658.6 434Z" fill="#ea5e6b" stroke="#ea5e6b"></path><path d="M785.1 168L682.1 176L675.2 223Z" fill="#ff6f61" stroke="#ff6f61"></path><path d="M739.6 141L760.1 80L692.2 116Z" fill="#ff6f61" stroke="#ff6f61"></path><path d="M680.1 26L646.1 123L692.2 116Z" fill="#783b6f" stroke="#783b6f"></path><path d="M680.1 26L586.2 44L646.1 123Z" fill="#783b6f" stroke="#783b6f"></path><path d="M383.8 93L413.8 162L495.2 142Z" fill="#3d2e58" stroke="#3d2e58"></path><path d="M360.8 231L323.8 249L352.3 265Z" fill="#5a3566" stroke="#5a3566"></path><path d="M352.3 265L303.4 356L352.3 363Z" fill="#ea5e6b" stroke="#ea5e6b"></path><path d="M304.4 188L323.8 249L360.8 231Z" fill="#5a3566" stroke="#5a3566"></path><path d="M352.3 363L339.4 386L390.3 427Z" fill="#001122" stroke="#001122"></path><path d="M303.4 356L339.4 386L352.3 363Z" fill="#ff6f61" stroke="#ff6f61"></path><path d="M483.3 45L531.7 123L568.2 65Z" fill="#0f1c35" stroke="#0f1c35"></path><path d="M413.8 162L357.8 120L360.8 231Z" fill="#974174" stroke="#974174"></path><path d="M777.1 332L785.1 168L681.2 285Z" fill="#b54775" stroke="#b54775"></path><path d="M539.2 540L560.2 503L505.7 540Z" fill="#783b6f" stroke="#783b6f"></path><path d="M560.2 503L639.1 540L606.2 483Z" fill="#d15172" stroke="#d15172"></path><path d="M606.2 483L669.2 540L658.6 434Z" fill="#783b6f" stroke="#783b6f"></path><path d="M505.7 540L488.8 417L444.2 444Z" fill="#242648" stroke="#242648"></path><path d="M543.8 23L483.3 45L568.2 65Z" fill="#5a3566" stroke="#5a3566"></path><path d="M435.8 540L505.7 540L444.2 444Z" fill="#ea5e6b" stroke="#ea5e6b"></path><path d="M435.8 540L444.2 444L376.4 515Z" fill="#783b6f" stroke="#783b6f"></path><path d="M550.8 540L639.1 540L560.2 503Z" fill="#783b6f" stroke="#783b6f"></path><path d="M586.2 44L543.8 23L568.2 65Z" fill="#5a3566" stroke="#5a3566"></path><path d="M483.3 45L383.8 93L495.2 142Z" fill="#001122" stroke="#001122"></path><path d="M378.8 119L357.8 120L413.8 162Z" fill="#242648" stroke="#242648"></path><path d="M383.8 93L357.8 120L378.8 119Z" fill="#242648" stroke="#242648"></path><path d="M832.1 356L834.1 290L777.1 332Z" fill="#ea5e6b" stroke="#ea5e6b"></path><path d="M777.1 332L834.1 290L785.1 168Z" fill="#ff6f61" stroke="#ff6f61"></path><path d="M300.9 367L323.4 408L339.4 386Z" fill="#b54775" stroke="#b54775"></path><path d="M339.4 386L323.4 408L390.3 427Z" fill="#b54775" stroke="#b54775"></path><path d="M323.8 249L303.4 356L352.3 265Z" fill="#783b6f" stroke="#783b6f"></path><path d="M639.1 540L669.2 540L606.2 483Z" fill="#5a3566" stroke="#5a3566"></path><path d="M785.1 168L775.6 111L754.6 142Z" fill="#001122" stroke="#001122"></path><path d="M754.6 142L775.6 111L739.6 141Z" fill="#0f1c35" stroke="#0f1c35"></path><path d="M608.7 0L535.2 0L543.8 23Z" fill="#b54775" stroke="#b54775"></path><path d="M855.6 182L775.6 111L785.1 168Z" fill="#3d2e58" stroke="#3d2e58"></path><path d="M222.9 336L300.9 367L303.4 356Z" fill="#b54775" stroke="#b54775"></path><path d="M303.4 356L300.9 367L339.4 386Z" fill="#242648" stroke="#242648"></path><path d="M850.1 428L832.1 356L774.1 387Z" fill="#b54775" stroke="#b54775"></path><path d="M774.1 387L832.1 356L777.1 332Z" fill="#242648" stroke="#242648"></path><path d="M320.4 136L304.4 188L360.8 231Z" fill="#5a3566" stroke="#5a3566"></path><path d="M323.8 249L251.9 247L303.4 356Z" fill="#d15172" stroke="#d15172"></path><path d="M376.4 515L444.2 444L390.3 427Z" fill="#5a3566" stroke="#5a3566"></path><path d="M775.6 111L760.1 80L739.6 141Z" fill="#b54775" stroke="#b54775"></path><path d="M707.6 39L680.1 26L692.2 116Z" fill="#ff6f61" stroke="#ff6f61"></path><path d="M760.1 80L707.6 39L692.2 116Z" fill="#0f1c35" stroke="#0f1c35"></path><path d="M539.2 540L515.2 569L550.8 540Z" fill="#3d2e58" stroke="#3d2e58"></path><path d="M550.8 540L515.2 569L639.1 540Z" fill="#783b6f" stroke="#783b6f"></path><path d="M639.1 540L755.6 567L669.2 540Z" fill="#0f1c35" stroke="#0f1c35"></path><path d="M505.7 540L515.2 569L539.2 540Z" fill="#ff6f61" stroke="#ff6f61"></path><path d="M435.8 540L515.2 569L505.7 540Z" fill="#ea5e6b" stroke="#ea5e6b"></path><path d="M334.3 115L320.4 136L357.8 120Z" fill="#242648" stroke="#242648"></path><path d="M357.8 120L320.4 136L360.8 231Z" fill="#001122" stroke="#001122"></path><path d="M334.3 0L334.3 115L383.8 93Z" fill="#5a3566" stroke="#5a3566"></path><path d="M383.8 93L334.3 115L357.8 120Z" fill="#ea5e6b" stroke="#ea5e6b"></path><path d="M608.7 0L543.8 23L586.2 44Z" fill="#242648" stroke="#242648"></path><path d="M543.8 23L532.2 0L483.3 45Z" fill="#001122" stroke="#001122"></path><path d="M483.3 45L435.8 0L383.8 93Z" fill="#b54775" stroke="#b54775"></path><path d="M535.2 0L532.2 0L543.8 23Z" fill="#d15172" stroke="#d15172"></path><path d="M680.1 26L608.7 0L586.2 44Z" fill="#242648" stroke="#242648"></path><path d="M323.4 408L376.4 515L390.3 427Z" fill="#3d2e58" stroke="#3d2e58"></path><path d="M288.8 511L376.4 515L323.4 408Z" fill="#5a3566" stroke="#5a3566"></path><path d="M832.1 356L865.5 308L834.1 290Z" fill="#001122" stroke="#001122"></path><path d="M834.1 290L855.6 182L785.1 168Z" fill="#0f1c35" stroke="#0f1c35"></path><path d="M747.6 540L810.1 464L658.6 434Z" fill="#974174" stroke="#974174"></path><path d="M832.1 356L939.5 332L865.5 308Z" fill="#242648" stroke="#242648"></path><path d="M876.6 252L855.6 182L834.1 290Z" fill="#5a3566" stroke="#5a3566"></path><path d="M820.1 46L761.1 46L760.1 80Z" fill="#974174" stroke="#974174"></path><path d="M820.1 46L760.1 80L775.6 111Z" fill="#974174" stroke="#974174"></path><path d="M760.1 80L761.1 46L707.6 39Z" fill="#ff6f61" stroke="#ff6f61"></path><path d="M707.6 39L721.6 0L680.1 26Z" fill="#b54775" stroke="#b54775"></path><path d="M680.1 26L721.6 0L608.7 0Z" fill="#0f1c35" stroke="#0f1c35"></path><path d="M669.2 540L747.6 540L658.6 434Z" fill="#d15172" stroke="#d15172"></path><path d="M755.6 567L747.6 540L669.2 540Z" fill="#001122" stroke="#001122"></path><path d="M865.5 308L876.6 252L834.1 290Z" fill="#5a3566" stroke="#5a3566"></path><path d="M532.2 0L435.8 0L483.3 45Z" fill="#ff6f61" stroke="#ff6f61"></path><path d="M747.6 540L806.6 488L810.1 464Z" fill="#5a3566" stroke="#5a3566"></path><path d="M810.1 464L850.1 428L774.1 387Z" fill="#974174" stroke="#974174"></path><path d="M257.4 174L251.9 247L304.4 188Z" fill="#5a3566" stroke="#5a3566"></path><path d="M304.4 188L251.9 247L323.8 249Z" fill="#ff6f61" stroke="#ff6f61"></path><path d="M960 254L879.6 246L876.6 252Z" fill="#001122" stroke="#001122"></path><path d="M876.6 252L879.6 246L855.6 182Z" fill="#d15172" stroke="#d15172"></path><path d="M885.6 438L850.1 428L810.1 464Z" fill="#974174" stroke="#974174"></path><path d="M865.5 308L960 290L876.6 252Z" fill="#001122" stroke="#001122"></path><path d="M761.1 46L721.6 0L707.6 39Z" fill="#ff6f61" stroke="#ff6f61"></path><path d="M215.4 140L257.4 174L320.4 136Z" fill="#3d2e58" stroke="#3d2e58"></path><path d="M320.4 136L257.4 174L304.4 188Z" fill="#3d2e58" stroke="#3d2e58"></path><path d="M215.4 140L320.4 136L258.8 54Z" fill="#ff6f61" stroke="#ff6f61"></path><path d="M747.6 540L789.6 540L806.6 488Z" fill="#242648" stroke="#242648"></path><path d="M835.1 522L885.6 438L810.1 464Z" fill="#001122" stroke="#001122"></path><path d="M755.6 567L789.6 540L747.6 540Z" fill="#001122" stroke="#001122"></path><path d="M435.8 0L379.8 2L383.8 93Z" fill="#b54775" stroke="#b54775"></path><path d="M515.2 569L755.6 567L639.1 540Z" fill="#974174" stroke="#974174"></path><path d="M251.9 247L223.4 311L303.4 356Z" fill="#974174" stroke="#974174"></path><path d="M300.9 367L239.9 442L323.4 408Z" fill="#ea5e6b" stroke="#ea5e6b"></path><path d="M183.4 300L223.4 311L177.9 291Z" fill="#783b6f" stroke="#783b6f"></path><path d="M774.1 0L756.1 0L761.1 46Z" fill="#d15172" stroke="#d15172"></path><path d="M761.1 46L756.1 0L721.6 0Z" fill="#001122" stroke="#001122"></path><path d="M223.4 311L222.9 336L303.4 356Z" fill="#3d2e58" stroke="#3d2e58"></path><path d="M855.6 182L839.5 73L775.6 111Z" fill="#001122" stroke="#001122"></path><path d="M927.1 137L839.5 73L855.6 182Z" fill="#783b6f" stroke="#783b6f"></path><path d="M839.5 73L820.1 46L775.6 111Z" fill="#b54775" stroke="#b54775"></path><path d="M835.1 522L810.1 464L806.6 488Z" fill="#001122" stroke="#001122"></path><path d="M850.1 428L885.6 438L832.1 356Z" fill="#3d2e58" stroke="#3d2e58"></path><path d="M803.6 0L774.1 0L761.1 46Z" fill="#d15172" stroke="#d15172"></path><path d="M239.9 442L288.8 511L323.4 408Z" fill="#974174" stroke="#974174"></path><path d="M376.4 515L300.8 546L435.8 540Z" fill="#d15172" stroke="#d15172"></path><path d="M435.8 540L258.9 568L515.2 569Z" fill="#ea5e6b" stroke="#ea5e6b"></path><path d="M838.5 559L835.1 522L789.6 540Z" fill="#001122" stroke="#001122"></path><path d="M789.6 540L835.1 522L806.6 488Z" fill="#974174" stroke="#974174"></path><path d="M222.9 336L239.9 442L300.9 367Z" fill="#ff6f61" stroke="#ff6f61"></path><path d="M300.8 546L299.3 540L258.9 568Z" fill="#783b6f" stroke="#783b6f"></path><path d="M288.8 511L299.3 540L376.4 515Z" fill="#3d2e58" stroke="#3d2e58"></path><path d="M435.8 0L334.3 0L379.8 2Z" fill="#5a3566" stroke="#5a3566"></path><path d="M379.8 2L334.3 0L383.8 93Z" fill="#001122" stroke="#001122"></path><path d="M258.9 568L299.3 540L288.8 511Z" fill="#001122" stroke="#001122"></path><path d="M299.3 540L300.8 546L376.4 515Z" fill="#783b6f" stroke="#783b6f"></path><path d="M875.5 0L803.6 0L820.1 46Z" fill="#974174" stroke="#974174"></path><path d="M820.1 46L803.6 0L761.1 46Z" fill="#ea5e6b" stroke="#ea5e6b"></path><path d="M334.3 0L318.8 0L334.3 115Z" fill="#783b6f" stroke="#783b6f"></path><path d="M885.6 438L939.5 332L832.1 356Z" fill="#b54775" stroke="#b54775"></path><path d="M879.6 246L927.1 137L855.6 182Z" fill="#001122" stroke="#001122"></path><path d="M258.8 54L320.4 136L334.3 115Z" fill="#001122" stroke="#001122"></path><path d="M257.4 174L165.4 245L251.9 247Z" fill="#ff6f61" stroke="#ff6f61"></path><path d="M223.4 311L183.4 300L222.9 336Z" fill="#5a3566" stroke="#5a3566"></path><path d="M177.9 291L223.4 311L251.9 247Z" fill="#ff6f61" stroke="#ff6f61"></path><path d="M222.9 336L112.4 392L239.9 442Z" fill="#ea5e6b" stroke="#ea5e6b"></path><path d="M120.5 444L228.4 470L239.9 442Z" fill="#783b6f" stroke="#783b6f"></path><path d="M239.9 442L228.4 470L288.8 511Z" fill="#ea5e6b" stroke="#ea5e6b"></path><path d="M318.8 0L258.8 54L334.3 115Z" fill="#0f1c35" stroke="#0f1c35"></path><path d="M755.6 567L838.5 559L789.6 540Z" fill="#ea5e6b" stroke="#ea5e6b"></path><path d="M835.1 522L877.1 540L885.6 438Z" fill="#242648" stroke="#242648"></path><path d="M960 357L960 333L939.5 332Z" fill="#783b6f" stroke="#783b6f"></path><path d="M165.4 245L177.9 291L251.9 247Z" fill="#242648" stroke="#242648"></path><path d="M183.4 300L112.4 392L222.9 336Z" fill="#783b6f" stroke="#783b6f"></path><path d="M318.8 0L299.9 0L258.8 54Z" fill="#b54775" stroke="#b54775"></path><path d="M960 254L927.1 137L879.6 246Z" fill="#001122" stroke="#001122"></path><path d="M839.5 73L875.5 0L820.1 46Z" fill="#0f1c35" stroke="#0f1c35"></path><path d="M960 333L960 290L939.5 332Z" fill="#0f1c35" stroke="#0f1c35"></path><path d="M939.5 332L960 290L865.5 308Z" fill="#d15172" stroke="#d15172"></path><path d="M960 290L960 254L876.6 252Z" fill="#783b6f" stroke="#783b6f"></path><path d="M960 357L939.5 332L960 367Z" fill="#0f1c35" stroke="#0f1c35"></path><path d="M299.9 0L260.9 29L258.8 54Z" fill="#ff6f61" stroke="#ff6f61"></path><path d="M204.9 77L179.9 135L215.4 140Z" fill="#3d2e58" stroke="#3d2e58"></path><path d="M179.9 135L165.4 245L215.4 140Z" fill="#b54775" stroke="#b54775"></path><path d="M215.4 140L165.4 245L257.4 174Z" fill="#b54775" stroke="#b54775"></path><path d="M960 367L939.5 332L956.5 395Z" fill="#242648" stroke="#242648"></path><path d="M838.5 559L877.1 540L835.1 522Z" fill="#ff6f61" stroke="#ff6f61"></path><path d="M956.5 395L939.5 332L885.6 438Z" fill="#3d2e58" stroke="#3d2e58"></path><path d="M948.5 428L956.5 395L885.6 438Z" fill="#b54775" stroke="#b54775"></path><path d="M960 529L948.5 428L885.6 438Z" fill="#3d2e58" stroke="#3d2e58"></path><path d="M204.9 77L215.4 140L258.8 54Z" fill="#5a3566" stroke="#5a3566"></path><path d="M299.9 0L265.4 0L260.9 29Z" fill="#783b6f" stroke="#783b6f"></path><path d="M232.4 0L204.9 77L258.8 54Z" fill="#5a3566" stroke="#5a3566"></path><path d="M192.4 540L258.9 568L288.8 511Z" fill="#0f1c35" stroke="#0f1c35"></path><path d="M300.8 546L258.9 568L435.8 540Z" fill="#d15172" stroke="#d15172"></path><path d="M232.4 0L258.8 54L260.9 29Z" fill="#242648" stroke="#242648"></path><path d="M992.5 160L951.5 120L927.1 137Z" fill="#0f1c35" stroke="#0f1c35"></path><path d="M927.1 137L925.5 32L839.5 73Z" fill="#5a3566" stroke="#5a3566"></path><path d="M925.5 32L875.5 0L839.5 73Z" fill="#974174" stroke="#974174"></path><path d="M992.5 160L960 114L951.5 120Z" fill="#783b6f" stroke="#783b6f"></path><path d="M951.5 120L925.5 32L927.1 137Z" fill="#b54775" stroke="#b54775"></path><path d="M265.4 0L232.4 0L260.9 29Z" fill="#b54775" stroke="#b54775"></path><path d="M204.9 77L159.4 96L179.9 135Z" fill="#0f1c35" stroke="#0f1c35"></path><path d="M179.9 135L126.4 263L165.4 245Z" fill="#783b6f" stroke="#783b6f"></path><path d="M165.4 245L126.4 263L177.9 291Z" fill="#974174" stroke="#974174"></path><path d="M177.9 291L121.9 308L183.4 300Z" fill="#001122" stroke="#001122"></path><path d="M228.4 470L192.4 540L288.8 511Z" fill="#ea5e6b" stroke="#ea5e6b"></path><path d="M113.9 266L126.4 263L119.9 96Z" fill="#3d2e58" stroke="#3d2e58"></path><path d="M960 60L925.5 32L951.5 120Z" fill="#ea5e6b" stroke="#ea5e6b"></path><path d="M126.4 263L121.9 308L177.9 291Z" fill="#974174" stroke="#974174"></path><path d="M960 254L992.5 160L927.1 137Z" fill="#d15172" stroke="#d15172"></path><path d="M960 114L960 60L951.5 120Z" fill="#0f1c35" stroke="#0f1c35"></path><path d="M960 290L992.5 160L960 254Z" fill="#b54775" stroke="#b54775"></path><path d="M960 333L992.5 160L960 290Z" fill="#ea5e6b" stroke="#ea5e6b"></path><path d="M960 357L992.5 160L960 333Z" fill="#3d2e58" stroke="#3d2e58"></path><path d="M995.5 540L992.5 160L960 357Z" fill="#ea5e6b" stroke="#ea5e6b"></path><path d="M995.5 540L960 357L960 367Z" fill="#d15172" stroke="#d15172"></path><path d="M120.5 74L159.4 96L148.9 17Z" fill="#0f1c35" stroke="#0f1c35"></path><path d="M148.9 540L192.4 540L228.4 470Z" fill="#ff6f61" stroke="#ff6f61"></path><path d="M119.9 96L126.4 263L179.9 135Z" fill="#b54775" stroke="#b54775"></path><path d="M126.4 263L113.9 266L121.9 308Z" fill="#3d2e58" stroke="#3d2e58"></path><path d="M992.5 160L960 60L960 114Z" fill="#242648" stroke="#242648"></path><path d="M948.5 428L995.5 540L956.5 395Z" fill="#d15172" stroke="#d15172"></path><path d="M956.5 395L995.5 540L960 367Z" fill="#5a3566" stroke="#5a3566"></path><path d="M877.1 540L960 529L885.6 438Z" fill="#974174" stroke="#974174"></path><path d="M960 540L960 529L877.1 540Z" fill="#783b6f" stroke="#783b6f"></path><path d="M113.9 266L100.4 293L121.9 308Z" fill="#974174" stroke="#974174"></path><path d="M121.9 308L112.4 392L183.4 300Z" fill="#0f1c35" stroke="#0f1c35"></path><path d="M85.9 283L100.4 293L113.9 266Z" fill="#ff6f61" stroke="#ff6f61"></path><path d="M94.9 391L112.4 392L121.9 308Z" fill="#3d2e58" stroke="#3d2e58"></path><path d="M838.5 559L960 540L877.1 540Z" fill="#242648" stroke="#242648"></path><path d="M960 529L995.5 540L948.5 428Z" fill="#3d2e58" stroke="#3d2e58"></path><path d="M112.4 392L120.5 444L239.9 442Z" fill="#3d2e58" stroke="#3d2e58"></path><path d="M8.5 204L85.9 283L113.9 266Z" fill="#0f1c35" stroke="#0f1c35"></path><path d="M38.5 348L94.9 391L121.9 308Z" fill="#0f1c35" stroke="#0f1c35"></path><path d="M112.4 392L94.9 391L120.5 444Z" fill="#3d2e58" stroke="#3d2e58"></path><path d="M120.5 74L124.4 94L159.4 96Z" fill="#242648" stroke="#242648"></path><path d="M159.4 96L124.4 94L179.9 135Z" fill="#0f1c35" stroke="#0f1c35"></path><path d="M38.5 348L121.9 308L100.4 293Z" fill="#3d2e58" stroke="#3d2e58"></path><path d="M120.5 74L119.9 96L124.4 94Z" fill="#ea5e6b" stroke="#ea5e6b"></path><path d="M124.4 94L119.9 96L179.9 135Z" fill="#783b6f" stroke="#783b6f"></path><path d="M120.5 444L148.9 540L228.4 470Z" fill="#3d2e58" stroke="#3d2e58"></path><path d="M192.4 540L148.9 540L258.9 568Z" fill="#0f1c35" stroke="#0f1c35"></path><path d="M120.4 540L148.9 540L120.5 444Z" fill="#783b6f" stroke="#783b6f"></path><path d="M960 60L960 0L925.5 32Z" fill="#5a3566" stroke="#5a3566"></path><path d="M925.5 32L960 -10L875.5 0Z" fill="#001122" stroke="#001122"></path><path d="M992.5 160L960 0L960 60Z" fill="#3d2e58" stroke="#3d2e58"></path><path d="M148.9 17L159.4 96L204.9 77Z" fill="#974174" stroke="#974174"></path><path d="M15.5 367L38.5 348L0 355Z" fill="#5a3566" stroke="#5a3566"></path><path d="M992.5 160L960 -10L960 0Z" fill="#3d2e58" stroke="#3d2e58"></path><path d="M960 0L960 -10L925.5 32Z" fill="#0f1c35" stroke="#0f1c35"></path><path d="M875.5 0L960 -10L803.6 0Z" fill="#974174" stroke="#974174"></path><path d="M803.6 0L960 -10L774.1 0Z" fill="#d15172" stroke="#d15172"></path><path d="M774.1 0L960 -10L756.1 0Z" fill="#ff6f61" stroke="#ff6f61"></path><path d="M756.1 0L960 -10L721.6 0Z" fill="#0f1c35" stroke="#0f1c35"></path><path d="M721.6 0L960 -10L608.7 0Z" fill="#783b6f" stroke="#783b6f"></path><path d="M608.7 0L960 -10L535.2 0Z" fill="#001122" stroke="#001122"></path><path d="M535.2 0L960 -10L532.2 0Z" fill="#b54775" stroke="#b54775"></path><path d="M532.2 0L960 -10L435.8 0Z" fill="#974174" stroke="#974174"></path><path d="M435.8 0L960 -10L334.3 0Z" fill="#242648" stroke="#242648"></path><path d="M334.3 0L960 -10L318.8 0Z" fill="#ea5e6b" stroke="#ea5e6b"></path><path d="M318.8 0L960 -10L299.9 0Z" fill="#001122" stroke="#001122"></path><path d="M299.9 0L960 -10L265.4 0Z" fill="#001122" stroke="#001122"></path><path d="M265.4 0L960 -10L232.4 0Z" fill="#d15172" stroke="#d15172"></path><path d="M232.4 0L148.9 17L204.9 77Z" fill="#001122" stroke="#001122"></path><path d="M838.5 559L995.5 540L960 540Z" fill="#001122" stroke="#001122"></path><path d="M960 540L995.5 540L960 529Z" fill="#ea5e6b" stroke="#ea5e6b"></path><path d="M97.9 540L120.4 540L120.5 444Z" fill="#242648" stroke="#242648"></path><path d="M148.9 540L120.4 540L258.9 568Z" fill="#0f1c35" stroke="#0f1c35"></path><path d="M148.9 17L109.9 47L120.5 74Z" fill="#ea5e6b" stroke="#ea5e6b"></path><path d="M120.5 74L11.5 96L119.9 96Z" fill="#001122" stroke="#001122"></path><path d="M122.9 0L123.4 14L148.9 17Z" fill="#001122" stroke="#001122"></path><path d="M148.9 17L123.4 14L109.9 47Z" fill="#001122" stroke="#001122"></path><path d="M960 -10L122.9 0L232.4 0Z" fill="#783b6f" stroke="#783b6f"></path><path d="M232.4 0L122.9 0L148.9 17Z" fill="#d15172" stroke="#d15172"></path><path d="M123.4 14L53.5 26L109.9 47Z" fill="#ea5e6b" stroke="#ea5e6b"></path><path d="M85.9 283L38.5 348L100.4 293Z" fill="#242648" stroke="#242648"></path><path d="M44.9 471L97.9 540L120.5 444Z" fill="#242648" stroke="#242648"></path><path d="M38.5 348L85.9 283L0 301Z" fill="#ea5e6b" stroke="#ea5e6b"></path><path d="M44.9 471L120.5 444L94.9 391Z" fill="#d15172" stroke="#d15172"></path><path d="M120.4 540L97.9 540L258.9 568Z" fill="#974174" stroke="#974174"></path><path d="M15.5 367L44.9 471L94.9 391Z" fill="#5a3566" stroke="#5a3566"></path><path d="M8.5 204L113.9 266L119.9 96Z" fill="#0f1c35" stroke="#0f1c35"></path><path d="M38.5 348L15.5 367L94.9 391Z" fill="#0f1c35" stroke="#0f1c35"></path><path d="M8.5 204L119.9 96L0 188Z" fill="#ea5e6b" stroke="#ea5e6b"></path><path d="M0 188L119.9 96L11.5 96Z" fill="#001122" stroke="#001122"></path><path d="M0 246L0 301L85.9 283Z" fill="#0f1c35" stroke="#0f1c35"></path><path d="M0 301L0 323L38.5 348Z" fill="#783b6f" stroke="#783b6f"></path><path d="M15.5 367L0 456L44.9 471Z" fill="#974174" stroke="#974174"></path><path d="M0 244L0 246L85.9 283Z" fill="#974174" stroke="#974174"></path><path d="M8.5 204L0 244L85.9 283Z" fill="#ea5e6b" stroke="#ea5e6b"></path><path d="M0 323L0 355L38.5 348Z" fill="#3d2e58" stroke="#3d2e58"></path><path d="M53.5 26L120.5 74L109.9 47Z" fill="#ea5e6b" stroke="#ea5e6b"></path><path d="M8.5 204L-18.5 182L0 244Z" fill="#974174" stroke="#974174"></path><path d="M122.9 0L53.5 26L123.4 14Z" fill="#ff6f61" stroke="#ff6f61"></path><path d="M0 301L-10.5 316L0 323Z" fill="#783b6f" stroke="#783b6f"></path><path d="M0 323L-10.5 316L0 355Z" fill="#783b6f" stroke="#783b6f"></path><path d="M0 246L-10.5 316L0 301Z" fill="#242648" stroke="#242648"></path><path d="M-18.5 182L-10.5 316L0 246Z" fill="#001122" stroke="#001122"></path><path d="M-18.5 182L0 246L0 244Z" fill="#ff6f61" stroke="#ff6f61"></path><path d="M53.5 26L11.5 96L120.5 74Z" fill="#b54775" stroke="#b54775"></path><path d="M44.9 471L25.9 516L97.9 540Z" fill="#974174" stroke="#974174"></path><path d="M0 456L25.9 516L44.9 471Z" fill="#0f1c35" stroke="#0f1c35"></path><path d="M0 456L15.5 367L0 355Z" fill="#783b6f" stroke="#783b6f"></path><path d="M-10.5 316L0 456L0 355Z" fill="#d15172" stroke="#d15172"></path><path d="M11.5 96L-18.5 182L0 188Z" fill="#001122" stroke="#001122"></path><path d="M0 188L-18.5 182L8.5 204Z" fill="#0f1c35" stroke="#0f1c35"></path><path d="M0 50L0 95L11.5 96Z" fill="#001122" stroke="#001122"></path><path d="M11.5 96L0 95L-18.5 182Z" fill="#001122" stroke="#001122"></path><path d="M122.9 0L29.5 0L53.5 26Z" fill="#3d2e58" stroke="#3d2e58"></path><path d="M53.5 26L0 50L11.5 96Z" fill="#d15172" stroke="#d15172"></path><path d="M960 -10L29.5 0L122.9 0Z" fill="#3d2e58" stroke="#3d2e58"></path><path d="M29.5 0L0 50L53.5 26Z" fill="#974174" stroke="#974174"></path><path d="M0 95L0 50L-18.5 182Z" fill="#ea5e6b" stroke="#ea5e6b"></path><path d="M-26.5 540L0 540L25.9 516Z" fill="#974174" stroke="#974174"></path><path d="M25.9 516L0 540L97.9 540Z" fill="#0f1c35" stroke="#0f1c35"></path><path d="M97.9 540L0 540L258.9 568Z" fill="#d15172" stroke="#d15172"></path><path d="M-26.5 540L25.9 516L0 456Z" fill="#ea5e6b" stroke="#ea5e6b"></path><path d="M-26.5 540L0 456L-10.5 316Z" fill="#974174" stroke="#974174"></path><path d="M960 -10L0 0L29.5 0Z" fill="#974174" stroke="#974174"></path><path d="M29.5 0L0 0L0 50Z" fill="#ea5e6b" stroke="#ea5e6b"></path><path d="M0 50L0 0L-18.5 182Z" fill="#d15172" stroke="#d15172"></path><path d="M-18.5 182L-26.5 540L-10.5 316Z" fill="#ea5e6b" stroke="#ea5e6b"></path><path d="M0 540L-26.5 540L258.9 568Z" fill="#783b6f" stroke="#783b6f"></path></g></svg>